<?xml version="1.0" standalone="no"?>
<!DOCTYPE svg PUBLIC "-//W3C//DTD SVG 20010904//EN"
 "http://www.w3.org/TR/2001/REC-SVG-20010904/DTD/svg10.dtd">
<svg version="1.0" xmlns="http://www.w3.org/2000/svg"
 width="2160.000000pt" height="2160.000000pt" viewBox="0 0 2160.000000 2160.000000"
 preserveAspectRatio="xMidYMid meet">
<metadata>
Created by potrace 1.14, written by Peter Selinger 2001-2017
</metadata>
<g transform="translate(0.000000,2160.000000) scale(0.100000,-0.100000)"
fill="#000000" stroke="none">
<path d="M19770 19501 c0 -5 -8 -9 -17 -9 -37 2 -108 -14 -115 -25 -5 -8 -8
-7 -8 3 0 9 -3 11 -8 5 -7 -9 -14 -12 -53 -20 -9 -2 -25 -8 -35 -13 -32 -16
-89 -39 -94 -38 -3 0 -12 -5 -20 -12 -32 -27 -89 -60 -94 -54 -3 3 -6 -2 -6
-12 0 -9 -4 -15 -8 -12 -5 3 -15 -3 -24 -12 -25 -29 -68 -62 -79 -62 -5 0 -8
-4 -5 -8 3 -5 -4 -15 -15 -22 -10 -8 -19 -20 -19 -28 0 -7 -4 -10 -10 -7 -5 3
-10 2 -10 -2 0 -5 -13 -23 -29 -41 -17 -17 -27 -32 -23 -32 4 0 2 -4 -3 -8 -6
-4 -23 -26 -38 -50 -15 -23 -35 -51 -45 -63 -9 -11 -16 -22 -15 -24 1 -3 -9
-17 -22 -31 -14 -15 -23 -29 -21 -32 3 -2 -6 -14 -19 -27 -14 -12 -22 -25 -18
-28 3 -4 0 -7 -7 -7 -7 0 -11 -3 -7 -6 3 -4 1 -12 -6 -20 -28 -32 -37 -44 -32
-44 5 0 -17 -29 -43 -56 -7 -8 -11 -14 -7 -14 7 0 -47 -73 -57 -78 -5 -2 -8
-9 -8 -16 0 -6 -9 -19 -20 -29 -11 -9 -20 -24 -20 -32 0 -8 -4 -15 -10 -15 -5
0 -10 -6 -10 -14 0 -8 -4 -16 -9 -18 -5 -1 -11 -10 -13 -18 -2 -8 -11 -21 -20
-28 -10 -7 -18 -20 -18 -28 0 -8 -4 -14 -10 -14 -5 0 -10 -7 -10 -15 0 -8 -4
-15 -8 -15 -9 0 -47 -62 -44 -72 1 -5 -3 -8 -8 -8 -6 0 -24 -22 -41 -50 -17
-27 -35 -50 -40 -50 -6 0 -7 -4 -4 -10 3 -5 -3 -17 -15 -27 -11 -10 -20 -22
-20 -29 0 -6 -9 -19 -20 -29 -11 -10 -20 -24 -20 -32 0 -7 -7 -16 -15 -19 -8
-4 -13 -10 -10 -14 3 -5 -4 -15 -15 -23 -11 -7 -17 -17 -13 -20 3 -4 1 -7 -6
-7 -7 0 -9 -5 -6 -10 3 -6 -1 -13 -9 -16 -9 -3 -14 -9 -11 -14 2 -4 -7 -18
-20 -30 -14 -13 -25 -29 -25 -37 0 -7 -4 -13 -10 -13 -5 0 -10 -7 -10 -15 0
-8 -5 -15 -11 -15 -5 0 -8 -4 -5 -9 3 -5 -1 -11 -9 -15 -8 -3 -15 -12 -15 -21
0 -8 -4 -15 -10 -15 -5 0 -10 -4 -10 -10 0 -5 -8 -19 -17 -30 -10 -11 -17 -24
-17 -28 1 -4 -7 -13 -18 -20 -10 -7 -16 -18 -13 -23 4 -5 1 -9 -4 -9 -6 0 -11
-7 -11 -15 0 -8 -7 -15 -17 -15 -9 0 -14 -3 -10 -6 6 -7 -40 -80 -69 -108 -8
-9 -12 -16 -8 -16 4 0 -1 -9 -11 -20 -10 -11 -15 -20 -10 -20 4 0 -2 -8 -13
-17 -12 -10 -22 -24 -24 -32 -2 -7 -13 -25 -25 -39 -13 -14 -23 -28 -23 -33 0
-4 -13 -23 -30 -41 -16 -18 -30 -38 -30 -45 0 -7 -4 -13 -10 -13 -5 0 -10 -7
-10 -15 0 -8 -4 -15 -10 -15 -5 0 -10 -5 -10 -10 0 -13 -88 -141 -109 -158 -9
-7 -16 -16 -15 -20 1 -15 -54 -91 -61 -84 -5 4 -5 2 -2 -5 4 -6 0 -18 -8 -26
-8 -9 -15 -20 -15 -26 0 -6 -3 -11 -8 -11 -4 0 -16 -16 -26 -35 -11 -19 -23
-35 -28 -35 -5 0 -6 -5 -3 -10 3 -6 -1 -13 -9 -16 -9 -3 -16 -12 -16 -19 0 -6
-11 -25 -25 -41 -14 -16 -31 -41 -37 -56 -7 -15 -16 -24 -20 -22 -4 3 -8 -1
-8 -10 0 -8 -4 -16 -9 -18 -5 -1 -11 -9 -13 -17 -2 -7 -13 -25 -25 -39 -13
-14 -23 -29 -23 -34 0 -5 -6 -16 -12 -23 -31 -34 -36 -43 -31 -49 3 -3 -2 -8
-11 -12 -9 -3 -16 -12 -16 -20 0 -8 -4 -14 -10 -14 -5 0 -10 -7 -10 -15 0 -9
-7 -18 -15 -21 -8 -4 -15 -15 -15 -27 0 -11 -3 -17 -7 -14 -6 6 -43 -46 -42
-59 0 -3 -7 -11 -17 -18 -11 -8 -14 -18 -9 -27 5 -8 4 -11 0 -6 -8 6 -23 -13
-77 -98 -12 -18 -20 -29 -44 -57 -5 -7 -13 -21 -17 -30 -3 -10 -11 -18 -17
-18 -9 0 -24 -28 -30 -55 -1 -5 -8 -14 -16 -18 -8 -4 -14 -14 -14 -21 0 -8 -7
-17 -16 -20 -9 -4 -14 -9 -11 -12 3 -4 -9 -27 -28 -51 -19 -25 -32 -51 -28
-57 3 -6 3 -8 -2 -4 -4 4 -22 -14 -39 -40 -31 -48 -51 -74 -74 -98 -7 -7 -13
-17 -12 -21 0 -4 -6 -16 -14 -25 -8 -9 -22 -30 -30 -46 -8 -16 -22 -34 -30
-41 -9 -7 -13 -17 -10 -22 3 -5 -2 -12 -10 -15 -9 -3 -16 -10 -16 -15 0 -6 -5
-15 -10 -22 -31 -35 -99 -137 -93 -137 5 0 3 -4 -4 -8 -15 -10 -63 -80 -63
-92 0 -6 -4 -10 -10 -10 -5 0 -10 -6 -10 -14 0 -8 -3 -16 -7 -18 -5 -1 -21
-23 -38 -48 -16 -25 -33 -47 -36 -50 -3 -3 -14 -20 -24 -37 -11 -18 -23 -33
-28 -33 -4 0 -6 -4 -3 -9 3 -5 -1 -12 -10 -15 -8 -3 -12 -10 -9 -16 3 -5 1
-10 -5 -10 -6 0 -8 -4 -5 -10 3 -5 -1 -10 -10 -10 -9 0 -13 -5 -10 -10 3 -6
-1 -13 -9 -16 -9 -3 -14 -10 -11 -14 3 -4 -9 -23 -25 -41 -16 -19 -30 -39 -30
-45 0 -5 -8 -19 -18 -30 -10 -10 -28 -36 -41 -56 -12 -21 -27 -38 -32 -38 -5
0 -9 -6 -9 -14 0 -7 -7 -19 -15 -26 -8 -7 -13 -15 -10 -19 2 -4 -5 -13 -15
-21 -10 -8 -17 -17 -14 -22 3 -4 -2 -11 -10 -14 -9 -3 -13 -10 -10 -15 3 -5 0
-9 -5 -9 -6 0 -11 -7 -11 -15 0 -8 -4 -15 -9 -15 -5 0 -11 -8 -15 -17 -3 -10
-21 -38 -41 -63 -20 -25 -38 -53 -41 -62 -4 -10 -11 -18 -16 -18 -5 0 -7 -4
-4 -9 3 -5 -1 -11 -9 -15 -8 -3 -15 -11 -15 -18 0 -8 -9 -20 -19 -27 -11 -8
-17 -21 -13 -29 3 -10 1 -13 -6 -8 -7 4 -12 1 -12 -7 0 -8 -7 -20 -15 -27 -8
-7 -12 -16 -9 -21 3 -5 1 -9 -4 -9 -5 0 -29 -30 -53 -67 -24 -38 -49 -72 -56
-76 -7 -4 -13 -12 -13 -18 0 -11 -41 -72 -52 -77 -5 -2 -8 -10 -8 -18 0 -8 -4
-14 -10 -14 -5 0 -10 -6 -10 -14 0 -8 -9 -21 -20 -29 -11 -8 -18 -16 -15 -19
4 -4 -26 -49 -65 -95 -6 -7 -8 -13 -5 -13 3 0 -4 -9 -14 -19 -11 -11 -28 -18
-38 -17 -10 2 -26 -1 -37 -6 -10 -6 -16 -6 -13 -1 7 11 -135 9 -153 -2 -7 -5
-11 -4 -7 1 7 11 -774 11 -793 -1 -8 -5 -11 -4 -7 1 7 12 -134 11 -153 -1 -7
-5 -11 -4 -7 1 7 11 -774 11 -793 -1 -8 -5 -11 -4 -7 1 7 12 -134 11 -153 -1
-7 -5 -11 -4 -7 1 7 11 -774 11 -793 -1 -8 -5 -11 -4 -7 1 7 12 -134 11 -153
-1 -7 -5 -11 -4 -7 1 7 11 -774 11 -793 -1 -8 -5 -11 -4 -7 1 7 12 -134 11
-153 -1 -7 -5 -11 -4 -7 1 7 11 -774 11 -793 -1 -8 -5 -11 -4 -7 1 7 12 -134
11 -153 -1 -7 -5 -11 -4 -7 1 7 11 -774 11 -793 -1 -8 -5 -11 -4 -7 1 7 12
-134 11 -153 -1 -7 -5 -11 -4 -7 1 7 11 -774 11 -793 -1 -8 -5 -11 -4 -7 1 7
12 -134 11 -153 -1 -7 -5 -11 -4 -7 1 7 11 -1414 11 -1433 -1 -8 -5 -11 -4 -7
1 7 12 -134 11 -153 -1 -7 -5 -11 -4 -7 1 7 11 -774 11 -793 -1 -8 -5 -11 -4
-7 1 7 12 -134 11 -153 -1 -7 -5 -11 -4 -7 1 7 11 -1414 11 -1433 -1 -8 -5
-11 -4 -7 1 7 12 -134 11 -153 -1 -7 -5 -11 -4 -7 1 7 11 -774 11 -793 -1 -8
-5 -11 -4 -7 1 7 12 -134 11 -153 -1 -7 -5 -11 -4 -7 1 7 11 -1414 11 -1433
-1 -8 -5 -11 -4 -7 1 7 12 -134 11 -153 -1 -7 -5 -11 -4 -7 1 7 11 -774 11
-793 -1 -8 -5 -11 -4 -7 1 7 12 -134 11 -153 -1 -7 -5 -11 -4 -7 1 3 5 -151 9
-376 8 l-382 0 -1 -960 c0 -527 3 -969 7 -981 5 -13 5 -23 -1 -23 -5 0 -5 -12
0 -29 5 -19 4 -33 -3 -40 -6 -6 -7 -11 -2 -11 6 0 11 -28 12 -63 0 -34 5 -109
9 -167 4 -58 7 -115 8 -127 0 -13 4 -23 9 -23 5 0 4 -7 -3 -15 -7 -8 -8 -15
-3 -15 5 0 8 -23 8 -51 0 -28 3 -53 7 -55 4 -3 8 -10 8 -15 0 -6 -4 -8 -8 -5
-5 3 -9 -1 -9 -9 0 -8 4 -15 8 -15 4 0 6 -8 4 -17 -1 -10 2 -26 7 -35 6 -13 5
-18 -4 -18 -8 0 -9 -3 -3 -8 6 -4 11 -18 12 -32 6 -72 10 -96 16 -108 5 -7 3
-12 -3 -12 -6 0 -8 -5 -3 -12 4 -7 8 -24 9 -38 1 -14 5 -45 9 -70 4 -25 8 -54
9 -65 0 -11 6 -23 11 -27 6 -5 5 -8 -3 -8 -9 0 -10 -5 -4 -17 5 -10 8 -26 7
-35 -2 -10 1 -18 7 -18 6 0 5 -6 -2 -15 -7 -8 -8 -15 -3 -15 5 0 10 -12 11
-27 1 -15 8 -30 15 -35 9 -6 9 -8 -2 -8 -8 0 -11 -6 -6 -17 3 -10 9 -35 12
-56 3 -21 6 -44 7 -50 1 -7 5 -18 9 -25 5 -7 3 -12 -5 -12 -9 0 -10 -2 -2 -8
7 -4 15 -27 18 -52 9 -66 11 -74 17 -85 3 -5 4 -20 3 -32 0 -13 2 -23 6 -23 4
0 7 -12 8 -27 1 -26 3 -39 14 -83 1 -8 8 -18 13 -22 6 -5 4 -8 -5 -8 -13 0
-13 -1 0 -10 12 -8 12 -10 1 -10 -10 0 -11 -4 -3 -12 10 -13 12 -18 12 -39 0
-5 3 -8 8 -6 4 3 7 -13 6 -34 0 -22 3 -42 8 -45 5 -3 6 -10 3 -15 -4 -5 -2 -9
3 -9 5 0 8 -13 7 -30 -1 -16 1 -30 5 -30 3 0 7 -6 8 -12 0 -7 4 -26 7 -43 4
-16 8 -37 10 -45 2 -8 4 -15 5 -15 1 0 3 -9 5 -20 10 -59 38 -155 43 -151 4 2
8 -8 8 -22 1 -15 4 -34 6 -42 3 -8 9 -34 13 -57 4 -24 10 -41 14 -39 3 2 7 -6
8 -17 1 -12 4 -29 6 -37 3 -8 8 -30 12 -47 4 -18 11 -33 15 -33 4 0 6 -12 6
-27 -1 -16 4 -37 11 -48 7 -11 13 -30 13 -42 0 -13 4 -23 8 -23 5 0 9 -6 10
-12 0 -7 3 -20 5 -28 2 -8 8 -28 12 -45 4 -16 15 -41 24 -55 9 -13 11 -21 4
-17 -8 5 -7 -2 2 -20 8 -15 15 -36 15 -45 0 -9 5 -20 10 -23 5 -3 10 -17 10
-30 0 -13 5 -27 10 -30 6 -4 8 -10 5 -15 -3 -5 -1 -11 5 -15 6 -4 8 -11 5 -16
-4 -5 -1 -9 4 -9 6 0 11 -11 11 -25 0 -14 5 -25 11 -25 5 0 8 -3 6 -7 -3 -5 0
-19 6 -33 5 -14 12 -34 14 -44 2 -11 8 -25 14 -32 6 -7 8 -17 5 -22 -3 -6 1
-15 9 -22 8 -7 15 -23 15 -37 0 -16 4 -22 12 -17 7 5 9 2 5 -8 -3 -9 -3 -19 1
-23 4 -4 7 -10 8 -13 1 -8 10 -30 32 -82 8 -19 16 -37 16 -40 3 -14 31 -81 52
-123 13 -26 18 -45 11 -42 -6 4 -3 -1 7 -9 11 -9 17 -16 13 -16 -4 0 1 -17 12
-39 11 -21 17 -41 14 -45 -4 -3 -1 -6 5 -6 7 0 12 -7 12 -15 0 -9 7 -27 16
-40 9 -13 13 -28 10 -34 -3 -5 1 -12 9 -15 8 -3 14 -9 13 -13 -4 -15 13 -53
24 -53 6 0 9 -3 5 -6 -3 -4 5 -26 18 -51 14 -24 25 -50 25 -58 0 -8 5 -15 10
-15 6 0 10 -11 10 -24 0 -13 3 -26 8 -28 7 -3 65 -118 64 -128 0 -3 6 -12 13
-20 7 -8 15 -22 17 -30 2 -8 11 -28 21 -45 9 -16 24 -45 32 -62 8 -18 20 -33
25 -33 6 0 9 -3 8 -8 -3 -7 51 -123 62 -132 3 -3 12 -18 20 -35 8 -16 33 -62
56 -102 23 -39 40 -74 36 -77 -3 -3 0 -6 7 -6 7 0 17 -13 22 -30 6 -16 15 -30
20 -30 5 0 9 -9 9 -19 0 -11 4 -21 8 -23 8 -3 55 -80 81 -130 7 -16 17 -28 21
-28 4 0 11 -11 14 -25 4 -14 11 -25 16 -25 6 0 10 -6 10 -14 0 -7 7 -19 15
-26 9 -7 13 -15 11 -18 -3 -2 5 -13 17 -23 12 -10 18 -18 14 -19 -5 0 3 -14
17 -31 14 -17 26 -36 26 -43 0 -6 9 -18 19 -26 11 -7 18 -17 16 -21 -3 -3 7
-19 20 -33 14 -15 23 -31 20 -36 -3 -5 3 -15 15 -22 11 -7 20 -18 20 -25 0 -7
5 -13 10 -13 6 0 10 -7 10 -15 0 -8 5 -15 10 -15 6 0 10 -6 10 -13 0 -7 9 -19
20 -27 14 -10 16 -16 7 -22 -8 -5 -6 -8 7 -8 11 0 16 -3 13 -6 -4 -4 7 -22 23
-41 17 -19 27 -39 24 -45 -4 -6 -3 -8 3 -5 5 3 17 -7 27 -24 9 -16 21 -29 27
-29 5 0 9 -7 9 -15 0 -8 8 -23 18 -33 9 -10 24 -29 32 -42 8 -12 20 -28 27
-35 7 -7 10 -15 7 -18 -3 -3 4 -8 15 -12 12 -3 19 -10 16 -14 -2 -5 8 -22 24
-39 16 -17 27 -33 24 -36 -4 -3 -1 -6 6 -6 7 0 9 -4 6 -10 -3 -5 0 -10 8 -10
7 0 19 -11 25 -25 6 -14 16 -25 22 -25 5 0 10 -5 10 -12 0 -7 9 -21 20 -33 39
-41 60 -65 60 -70 0 -5 36 -49 61 -74 9 -9 22 -26 28 -39 7 -12 17 -20 23 -16
6 4 8 3 4 -4 -3 -6 1 -15 10 -20 9 -5 14 -11 12 -14 -1 -3 9 -19 24 -35 49
-50 98 -105 98 -108 0 -2 10 -14 22 -27 13 -13 32 -35 42 -50 11 -15 23 -25
28 -22 4 3 8 0 8 -7 0 -7 18 -30 40 -51 22 -22 40 -42 40 -45 0 -2 32 -36 70
-75 39 -39 70 -74 70 -79 0 -4 9 -11 20 -14 11 -3 20 -10 20 -14 0 -5 27 -36
60 -69 33 -34 60 -67 60 -73 0 -7 2 -10 5 -7 3 3 31 -19 63 -48 31 -30 60 -54
64 -54 5 0 8 -7 8 -15 0 -8 3 -15 8 -15 4 0 46 -37 93 -83 119 -113 146 -136
153 -130 3 4 6 0 6 -8 0 -8 12 -23 27 -34 15 -11 40 -33 55 -48 16 -15 28 -25
28 -23 0 3 18 -13 39 -34 22 -22 42 -40 45 -40 3 0 21 -15 41 -32 19 -18 52
-49 73 -68 21 -19 51 -41 65 -49 15 -8 27 -21 27 -28 0 -8 4 -12 9 -9 5 4 22
-7 38 -22 15 -15 36 -31 46 -35 9 -3 17 -11 17 -17 0 -5 5 -10 10 -10 6 0 21
-11 34 -25 13 -14 26 -25 30 -25 3 0 20 -12 37 -27 17 -16 45 -36 62 -45 18
-9 28 -17 23 -18 -5 0 13 -14 40 -32 27 -18 56 -39 64 -48 8 -9 23 -19 33 -23
9 -3 17 -11 17 -17 0 -6 5 -8 10 -5 6 3 10 1 10 -6 0 -7 3 -9 6 -6 4 4 14 -1
23 -11 9 -10 40 -33 68 -52 29 -18 53 -37 53 -42 0 -4 7 -8 15 -8 8 0 23 -9
32 -20 10 -11 23 -20 30 -20 7 0 13 -4 13 -10 0 -5 7 -10 15 -10 8 0 15 -4 15
-10 0 -5 7 -10 15 -10 8 0 15 -4 15 -10 0 -5 7 -10 15 -10 8 0 15 -5 15 -11 0
-5 4 -7 10 -4 6 3 10 1 10 -4 0 -6 6 -11 13 -11 7 0 19 -9 27 -19 7 -11 17
-18 20 -16 4 2 20 -8 37 -23 16 -16 35 -26 41 -24 7 2 12 -1 12 -8 0 -6 5 -8
10 -5 6 3 10 2 10 -4 0 -5 9 -13 20 -16 11 -4 32 -19 47 -33 14 -15 22 -20 18
-12 -6 10 -1 8 13 -4 12 -11 22 -16 22 -13 0 4 9 -2 20 -13 12 -12 24 -19 29
-16 4 3 14 -4 21 -15 8 -10 20 -19 27 -19 11 0 72 -36 99 -59 7 -6 15 -7 18
-4 3 4 6 1 6 -5 0 -7 7 -12 15 -12 8 0 24 -9 35 -20 12 -12 25 -18 30 -15 5 3
12 -1 17 -9 4 -8 11 -15 16 -15 15 0 107 -54 107 -63 0 -4 4 -7 8 -5 8 2 101
-42 112 -53 14 -14 209 -108 214 -103 3 4 6 2 6 -4 0 -5 19 -18 43 -28 23 -10
50 -26 61 -34 10 -9 20 -15 22 -14 9 4 44 -10 44 -18 0 -5 3 -8 8 -7 4 0 25
-7 47 -17 22 -10 43 -18 48 -17 4 1 7 -3 7 -8 0 -5 3 -9 8 -8 11 2 45 -13 66
-31 15 -12 17 -13 11 -2 -5 9 4 6 22 -7 17 -12 33 -19 37 -15 3 3 6 2 6 -3 0
-5 10 -11 22 -11 13 -1 24 -7 26 -13 2 -5 12 -10 23 -10 10 0 19 -4 19 -10 0
-5 7 -10 16 -10 9 0 37 -10 63 -23 25 -13 48 -24 51 -24 16 0 50 -15 50 -21 0
-4 12 -9 28 -10 15 -1 29 -7 30 -12 2 -6 8 -8 13 -4 5 3 9 0 9 -5 0 -6 3 -10
8 -9 4 1 23 -4 42 -11 19 -8 38 -15 43 -16 4 -1 10 -4 15 -5 4 -1 10 -2 15 -1
4 0 7 -4 7 -9 0 -6 11 -10 25 -10 14 0 25 -4 25 -8 0 -5 6 -9 13 -9 21 -1 42
-8 48 -16 3 -4 14 -9 25 -12 10 -2 49 -15 87 -29 37 -13 67 -22 67 -20 0 3 10
-1 23 -8 12 -7 25 -11 29 -10 5 1 8 -3 8 -8 0 -5 3 -9 7 -9 17 3 73 -14 73
-22 0 -4 9 -6 20 -4 11 2 20 0 20 -6 0 -5 3 -8 7 -8 15 3 73 -14 79 -22 2 -4
12 -5 21 -2 12 5 14 3 8 -7 -5 -8 -4 -11 2 -7 6 4 37 -3 69 -14 33 -12 68 -22
79 -24 11 -2 32 -8 46 -13 15 -6 30 -8 33 -5 3 4 6 1 6 -5 0 -7 3 -11 7 -10
10 2 55 -9 118 -30 28 -9 56 -15 63 -14 6 2 12 -1 12 -5 0 -5 8 -9 18 -10 26
-2 45 -8 61 -17 11 -7 12 -6 6 5 -7 11 -6 12 6 3 14 -12 78 -29 91 -26 5 1 8
-2 8 -6 0 -5 10 -8 22 -7 13 1 28 -1 33 -5 6 -4 26 -10 45 -14 57 -11 75 -14
80 -16 3 -1 10 -3 15 -4 6 -1 17 -5 25 -8 16 -7 61 -17 100 -22 14 -2 25 -5
25 -6 0 -1 14 -4 30 -6 71 -9 80 -12 77 -24 -3 -11 0 -11 12 0 9 7 16 8 16 3
0 -9 9 -10 80 -15 17 -1 30 -4 30 -8 0 -6 34 -11 83 -13 15 0 27 -4 27 -8 0
-4 14 -6 30 -5 17 1 30 -1 30 -4 0 -3 11 -7 25 -8 14 -1 36 -4 50 -5 14 -1 25
-5 25 -9 0 -4 7 -5 15 -2 8 4 22 1 30 -6 11 -9 15 -9 15 -1 0 7 5 9 10 6 6 -4
23 -8 38 -11 15 -2 38 -7 52 -10 14 -4 45 -8 70 -9 25 -2 45 -4 45 -5 0 -3 33
-7 120 -15 33 -4 64 -10 69 -15 5 -5 19 -5 32 0 13 5 24 6 24 2 0 -5 12 -9 28
-10 92 -5 108 -8 114 -17 5 -6 8 -5 8 3 0 7 5 10 11 7 5 -4 42 -9 82 -12 40
-3 81 -6 92 -7 11 -1 26 -6 34 -10 11 -7 12 -6 6 5 -7 11 -6 12 6 2 12 -10 18
-10 27 -1 7 7 12 8 12 2 0 -5 19 -10 43 -11 23 -1 89 -4 147 -7 58 -4 175 -9
260 -11 85 -3 157 -5 160 -6 16 -3 410 1 540 6 85 3 189 7 232 8 47 1 74 6 70
12 -3 6 2 4 11 -4 9 -7 17 -10 17 -5 0 5 24 8 52 8 29 -1 58 2 63 7 6 4 17 4
25 -1 8 -5 21 -5 29 -1 9 4 41 9 71 10 30 2 67 3 83 4 15 1 27 4 27 7 0 3 19
6 43 6 97 4 167 9 167 14 0 3 24 6 52 8 29 2 58 8 64 13 8 7 14 6 19 -1 3 -6
11 -8 16 -4 12 7 79 17 126 18 18 1 33 4 33 7 0 3 12 7 28 7 15 1 43 4 62 7
19 4 46 8 60 10 14 2 27 4 30 5 3 1 8 2 12 2 12 -2 136 26 147 33 6 3 11 0 11
-7 0 -8 3 -9 8 -3 8 11 21 15 67 20 34 4 68 11 135 27 25 5 61 12 80 15 19 3
38 10 42 17 5 7 8 6 8 -4 0 -9 3 -11 8 -5 4 6 14 10 22 10 8 -1 20 1 25 4 6 3
15 6 20 7 6 1 24 5 40 9 17 3 36 7 43 7 6 1 12 4 12 8 0 4 14 6 30 5 17 -1 30
3 30 8 0 5 9 7 20 4 12 -3 24 1 30 11 7 12 9 13 10 3 0 -9 4 -10 13 -4 6 5 26
10 42 12 17 2 35 7 42 13 7 5 17 7 22 4 5 -4 12 -2 16 4 4 6 10 8 15 5 5 -3
11 -1 15 4 3 5 14 8 25 6 11 -2 20 0 20 4 0 4 6 8 13 9 60 9 87 16 87 24 0 5
4 7 9 4 5 -3 34 3 64 13 30 11 58 17 61 14 3 -4 6 -1 6 6 0 7 5 9 10 6 6 -4
16 -2 23 3 7 6 15 11 20 11 22 2 64 15 75 24 8 6 12 5 12 -4 0 -11 2 -11 10 1
5 8 10 11 10 5 0 -5 7 -1 15 9 8 11 15 14 15 8 0 -9 8 -9 29 2 16 9 31 12 35
9 3 -4 6 -2 6 4 0 5 6 10 13 11 30 2 121 32 161 53 13 8 16 7 11 -1 -5 -8 -2
-9 11 -1 52 29 105 51 100 42 -4 -7 -1 -8 8 -5 9 3 16 10 16 15 0 5 3 8 8 7
10 -2 65 13 77 22 6 4 25 11 43 15 17 3 32 11 32 16 0 6 4 8 9 4 5 -3 12 -1
16 5 4 6 10 8 15 5 5 -3 11 -1 15 5 4 6 11 8 16 5 5 -4 9 -1 9 6 0 7 3 9 7 6
3 -4 17 0 30 8 13 9 23 11 23 5 0 -6 9 -3 19 7 11 10 47 27 80 37 34 11 61 24
61 29 0 6 3 7 6 4 4 -3 16 -1 28 5 11 7 23 13 26 13 20 3 80 30 80 36 0 5 9 6
20 4 11 -2 20 0 20 5 0 5 11 12 25 16 14 3 23 10 20 14 -3 5 6 7 20 5 14 -1
25 2 25 7 0 6 7 7 16 4 8 -3 12 -2 9 4 -5 9 1 12 21 9 4 0 10 3 13 8 8 11 63
37 74 35 4 -1 7 3 7 8 0 6 9 10 20 10 11 0 20 4 20 8 0 4 10 9 22 9 13 1 24 7
26 13 2 5 8 10 14 10 6 0 42 16 79 35 38 19 69 32 69 27 0 -4 4 -2 8 4 11 18
129 74 137 66 5 -4 5 -2 2 4 -4 7 3 14 18 18 14 4 23 11 19 17 -3 6 0 9 7 8 8
-2 34 8 59 21 25 13 48 23 53 22 4 -1 7 3 7 8 0 6 7 10 15 10 8 0 24 9 35 20
11 11 20 17 20 14 0 -4 6 -1 13 5 8 6 17 8 20 4 4 -3 7 -2 7 4 0 6 14 16 31
23 17 7 37 19 45 27 7 8 23 15 34 16 11 1 20 5 20 9 0 4 7 8 15 8 8 0 15 4 15
10 0 5 16 16 35 24 19 8 35 20 35 26 0 6 4 9 9 6 5 -3 14 1 21 9 6 7 18 11 26
8 9 -3 14 1 14 13 0 9 3 14 7 11 3 -4 13 -1 21 5 16 14 44 31 82 50 14 7 29
18 33 25 5 8 12 11 18 8 5 -4 12 1 15 9 3 9 12 16 20 16 8 0 14 5 14 11 0 5 5
7 10 4 6 -3 10 -1 10 6 0 7 3 10 6 6 4 -3 21 5 39 18 17 14 35 25 39 25 4 0
14 7 23 15 8 8 19 13 24 9 5 -3 9 -2 8 3 -4 21 2 32 14 27 8 -3 20 2 27 11 7
8 19 15 26 15 8 0 14 5 14 10 0 6 11 15 25 20 14 5 25 14 25 20 0 6 4 9 9 5 6
-3 14 3 20 12 6 10 11 14 11 10 0 -5 6 -2 14 5 7 7 24 20 36 28 12 8 29 21 36
28 8 7 14 11 14 7 0 -4 6 0 14 7 7 7 24 20 36 28 12 8 28 21 36 28 7 6 17 12
22 12 6 0 13 7 16 16 3 8 10 13 15 10 5 -3 11 1 15 9 3 8 10 15 16 15 5 0 19
9 30 20 12 12 25 18 30 15 6 -4 10 1 10 9 0 8 9 18 20 21 11 3 20 11 20 16 0
5 6 9 13 9 7 0 18 9 25 20 7 11 17 20 23 20 7 0 20 9 30 21 9 11 21 21 26 22
4 1 7 6 5 10 -1 5 2 6 6 3 5 -3 17 3 27 14 10 11 22 20 28 20 5 0 18 11 29 26
11 14 22 23 24 21 3 -2 24 13 47 34 23 22 48 39 56 39 8 0 11 3 8 6 -4 4 14
22 39 41 24 19 64 52 87 74 23 21 48 39 55 39 7 0 10 4 7 10 -3 5 1 10 10 10
9 0 13 5 10 10 -3 6 -2 10 4 10 5 0 26 16 47 35 20 19 41 35 46 35 5 0 7 4 4
9 -3 4 6 13 19 19 14 7 25 16 25 22 0 5 7 10 15 10 8 0 15 8 15 17 0 9 2 14 6
11 8 -8 92 75 86 86 -3 5 -1 6 5 3 5 -4 24 10 41 29 18 20 32 33 32 29 0 -3
33 28 74 69 41 41 77 72 80 69 3 -4 6 -1 6 5 0 13 58 72 71 72 5 0 9 5 9 11 0
5 30 41 68 79 148 152 172 178 172 189 0 7 4 10 9 6 5 -3 12 4 16 15 4 11 10
18 15 15 9 -5 25 24 21 40 -2 6 1 7 5 3 7 -8 44 29 44 44 0 5 5 6 10 3 6 -3
10 1 10 10 0 9 4 14 9 10 5 -3 12 4 16 15 3 11 13 20 21 20 8 0 14 5 14 11 0
5 -5 7 -12 3 -6 -4 12 15 40 43 29 28 52 54 52 58 0 4 10 17 23 29 12 12 36
39 52 61 17 21 40 48 53 60 12 12 22 25 22 28 0 6 26 38 73 88 9 10 17 21 17
24 0 6 14 24 46 59 12 12 34 41 49 64 15 23 32 42 37 42 5 0 6 5 3 10 -3 6 1
10 10 10 9 0 14 4 10 9 -3 6 4 19 16 30 12 11 18 24 14 32 -5 8 -4 10 3 5 7
-4 12 -2 12 4 0 6 5 8 10 5 6 -3 10 1 10 9 0 9 9 25 20 36 11 11 17 20 13 20
-3 0 3 8 14 17 11 10 18 24 15 32 -2 8 0 11 5 8 5 -3 17 7 27 24 9 16 22 29
27 29 6 0 7 4 4 10 -3 6 -1 10 5 10 6 0 8 5 5 10 -3 6 1 13 9 16 8 3 18 15 22
26 6 19 23 43 52 73 6 8 12 18 12 23 0 6 3 12 8 14 4 2 23 28 42 58 19 30 38
58 43 61 5 4 6 12 2 19 -5 8 -4 11 3 6 13 -8 45 47 34 59 -4 5 -2 6 4 2 5 -3
18 10 29 29 10 19 22 34 27 34 5 0 6 5 3 10 -3 6 -1 10 5 10 6 0 9 4 6 9 -3 5
1 12 9 15 8 3 14 9 13 13 -2 11 35 73 45 73 5 0 5 5 2 10 -3 6 -1 10 4 10 6 0
11 7 11 15 0 8 5 15 11 15 5 0 8 4 5 8 -3 5 6 20 19 34 13 14 21 28 18 31 -3
3 4 16 16 28 12 13 21 26 21 31 0 19 2 23 16 31 8 4 14 15 14 22 0 8 5 15 11
15 5 0 7 5 4 10 -3 6 -2 10 4 10 5 0 11 10 13 22 2 13 8 22 14 21 5 -1 11 7
11 18 1 10 9 26 17 35 9 9 14 20 11 25 -4 5 -1 9 5 9 6 0 8 5 5 10 -3 6 -1 10
5 10 6 0 9 4 6 9 -3 5 1 11 9 15 8 3 15 10 15 17 0 6 9 24 21 40 11 16 18 29
14 29 -8 0 27 63 40 72 6 4 6 8 2 8 -5 0 -1 7 7 16 9 8 16 24 16 35 0 10 4 19
9 19 9 0 66 110 63 123 -1 4 3 7 9 7 5 0 7 5 4 10 -3 6 1 13 9 16 9 3 14 10
11 14 -3 5 0 14 7 22 7 7 13 18 14 23 3 23 17 55 25 55 4 0 11 16 15 35 3 19
10 32 15 29 5 -3 6 2 3 11 -4 9 2 23 13 33 11 9 18 23 16 30 -3 6 0 12 6 12 6
0 11 3 10 8 -2 14 14 52 22 52 5 0 6 7 3 15 -4 8 -1 15 5 15 6 0 10 3 9 8 -1
4 5 21 12 37 7 17 13 33 12 38 -1 4 3 7 10 7 6 0 8 3 5 6 -3 4 -1 16 5 28 7
11 13 23 13 26 1 3 12 28 25 55 13 28 23 53 22 58 -1 4 3 7 9 7 5 0 7 4 4 10
-3 5 1 22 9 37 23 42 49 107 47 117 -1 4 5 19 14 32 13 20 21 47 24 77 1 5 6
5 13 1 7 -4 8 -3 4 4 -4 6 -1 22 6 34 6 13 12 28 13 33 0 6 6 20 13 33 7 12
10 22 7 22 -3 0 2 14 10 30 9 17 13 35 10 40 -3 6 -2 10 3 10 5 0 15 21 22 48
7 26 17 52 21 58 5 6 6 14 2 17 -3 4 -1 7 6 7 7 0 10 4 6 9 -3 5 -1 12 4 16 6
3 8 12 4 20 -3 8 0 15 7 15 7 0 10 7 6 15 -3 8 -2 15 2 15 4 0 8 10 9 22 1 11
6 24 10 27 4 3 9 13 10 21 4 37 15 75 24 86 5 6 6 14 2 17 -3 4 0 14 7 22 8 9
15 28 16 42 2 14 7 29 12 32 5 3 8 16 7 29 -1 12 1 22 4 22 4 0 8 12 9 28 1
15 7 29 12 30 6 2 8 8 4 13 -3 5 -2 15 3 22 4 6 9 22 11 35 1 12 8 35 14 50 6
15 12 36 14 47 2 11 12 50 23 87 10 36 17 69 13 72 -3 3 0 6 6 6 7 0 11 3 10
8 -3 15 15 102 21 102 4 0 6 13 5 30 -1 16 2 30 8 30 5 0 8 6 5 13 -2 6 -1 19
4 28 5 9 10 31 11 48 1 17 6 31 11 31 4 0 5 4 2 10 -3 5 -1 19 5 30 8 15 8 20
-2 20 -10 0 -10 2 -1 8 7 5 15 22 16 39 2 16 7 35 10 40 4 6 9 30 11 54 3 24
9 58 15 76 5 17 7 34 4 37 -3 3 -1 11 4 18 6 7 10 25 9 41 -1 15 2 27 6 27 4
0 7 3 6 8 -1 4 1 25 5 47 9 45 16 96 22 140 5 32 12 70 15 70 3 0 13 88 14
122 1 17 5 29 10 25 5 -3 7 1 4 9 -3 8 -1 39 4 69 5 30 10 71 11 90 2 19 6 41
10 48 5 7 3 12 -5 12 -9 0 -9 3 -2 8 6 4 11 21 12 37 1 47 11 126 18 147 3 11
0 18 -8 18 -10 0 -10 2 1 9 9 6 14 31 15 80 0 39 3 71 6 71 3 0 5 19 5 43 0
23 2 61 6 85 4 27 2 42 -5 42 -8 0 -8 3 0 8 6 4 12 32 13 62 3 91 6 114 14
127 4 6 3 14 -3 18 -6 4 -7 12 -3 18 10 17 11 47 1 47 -5 0 -4 8 1 18 7 13 6
23 -1 30 -7 7 -8 12 -3 12 6 0 11 77 13 186 1 103 5 191 8 195 3 5 -1 9 -8 9
-9 0 -9 3 2 10 13 9 13 10 0 10 -13 0 -13 1 0 10 8 5 10 10 5 10 -6 0 -11 9
-11 20 0 11 5 20 11 20 5 0 3 5 -5 10 -8 5 -10 10 -4 10 12 0 11 41 -1 59 -3
6 0 11 7 11 9 0 9 3 -2 10 -11 7 -11 10 -2 10 10 0 10 5 2 20 -8 15 -8 20 2
20 9 0 9 3 -2 10 -8 5 -10 10 -4 10 8 0 9 11 4 35 -4 19 -5 35 -1 35 3 0 6 14
6 30 0 17 -4 30 -10 30 -5 0 -3 5 5 10 13 9 13 10 0 10 -13 0 -13 1 0 10 13 9
13 10 0 10 -9 0 -11 3 -5 8 6 4 10 53 10 110 0 61 -4 102 -10 102 -5 0 -3 5 5
10 13 9 13 10 0 10 -13 0 -13 1 0 10 8 5 10 10 5 10 -6 0 -11 9 -11 20 0 11 5
20 11 20 5 0 3 5 -5 10 -8 5 -10 10 -4 10 12 0 11 41 -1 59 -3 6 0 11 7 11 9
0 9 3 -2 10 -11 7 -11 10 -2 10 10 0 10 5 2 20 -8 15 -8 20 2 20 9 0 9 3 -2
10 -8 5 -10 10 -4 10 8 0 9 11 4 35 -4 19 -5 35 -1 35 3 0 6 14 6 30 0 17 -4
30 -10 30 -5 0 -3 5 5 10 13 9 13 10 0 10 -13 0 -13 1 0 10 13 9 13 10 0 10
-9 0 -11 3 -5 8 6 4 10 44 10 90 0 48 -4 82 -10 82 -5 0 -3 5 5 10 13 9 13 10
0 10 -13 0 -13 1 0 10 13 9 13 10 0 10 -13 0 -13 1 0 10 13 9 13 10 0 10 -12
0 -12 2 -2 9 8 4 14 12 14 16 0 4 -6 12 -14 16 -10 7 -10 9 0 9 10 0 10 5 2
20 -8 15 -8 20 1 20 8 0 8 4 -1 15 -8 9 -8 15 -2 15 7 0 8 10 2 30 -6 21 -5
30 3 30 7 0 6 4 -3 10 -8 5 -10 10 -4 10 6 0 10 11 9 24 -5 39 -13 48 -37 35
-11 -6 -18 -7 -15 -2 7 11 -775 9 -793 -2 -8 -5 -11 -4 -7 1 7 12 -134 11
-153 -1 -7 -5 -11 -4 -7 1 7 11 -774 11 -793 -1 -8 -5 -11 -4 -7 1 7 12 -134
11 -153 -1 -7 -5 -11 -4 -7 1 7 11 -854 11 -873 -1 -8 -5 -11 -4 -7 2 7 11
-123 10 -141 -1 -17 -11 -15 30 3 51 24 29 79 108 80 113 0 3 8 16 18 30 96
136 144 209 139 214 -3 3 0 6 6 6 6 0 14 9 17 20 4 11 11 18 16 15 5 -4 9 -1
9 6 0 6 16 34 35 60 19 27 35 54 35 59 0 6 3 10 8 10 4 0 20 23 35 50 16 28
32 50 38 50 5 0 9 4 9 10 0 5 7 18 15 27 8 10 16 23 17 28 2 11 13 26 45 61
12 13 20 24 16 24 -3 0 7 16 21 35 15 19 23 35 19 35 -4 0 0 5 10 11 9 6 15
14 12 20 -4 5 1 9 9 9 9 0 15 3 14 8 -3 15 15 42 25 35 5 -3 7 -2 4 4 -6 9 49
94 65 101 5 2 8 10 8 18 0 8 5 14 11 14 5 0 7 5 4 10 -3 6 -1 10 5 10 6 0 15
11 20 25 5 14 14 25 20 25 6 0 8 5 5 10 -3 6 -1 10 4 10 6 0 11 6 12 13 0 6
16 32 35 57 19 25 37 53 40 63 4 9 10 17 15 17 5 0 9 6 9 14 0 8 7 17 16 20 8
3 12 10 9 16 -3 5 -2 10 4 10 5 0 13 9 16 20 3 11 13 20 20 20 8 0 12 6 9 14
-3 8 5 21 18 30 13 9 22 19 21 21 -7 13 -2 25 9 19 7 -5 9 -2 5 9 -3 9 0 18 9
21 8 3 14 12 14 19 0 8 9 22 20 32 11 10 17 22 14 26 -3 5 2 9 11 9 9 0 13 5
10 10 -3 6 1 13 9 16 9 3 14 9 12 13 -3 4 8 22 24 41 16 19 27 37 24 42 -3 4
-1 8 5 8 6 0 22 20 37 45 14 25 30 45 36 45 5 0 8 5 6 12 -2 6 3 20 11 29 28
31 41 48 41 54 0 8 74 110 82 113 5 2 6 8 2 13 -3 5 0 9 6 9 6 0 15 11 20 25
5 14 14 25 20 25 6 0 8 5 5 10 -3 6 -1 10 4 10 6 0 11 7 11 15 0 8 5 15 11 15
5 0 8 4 5 9 -3 5 1 11 9 15 8 3 15 12 15 21 0 8 4 15 9 15 5 0 14 13 21 30 7
16 15 28 19 26 4 -3 13 9 20 26 8 17 21 39 30 49 35 39 43 51 37 56 -3 4 3 12
14 20 11 8 20 21 20 29 0 8 7 14 17 14 9 0 13 3 10 6 -8 8 24 64 36 64 4 0 5
5 2 10 -3 6 1 13 9 16 9 3 13 10 10 15 -3 5 0 9 5 9 6 0 11 7 11 16 0 8 5 12
10 9 6 -3 10 0 10 8 0 8 13 30 30 48 16 19 30 40 30 47 0 6 5 12 11 12 5 0 7
5 4 10 -3 6 -2 10 3 10 5 0 17 16 26 35 9 19 20 35 24 35 4 0 18 20 32 45 14
25 29 45 34 45 5 0 7 3 3 6 -3 4 4 15 16 25 12 10 18 18 14 19 -8 0 1 12 34
49 8 9 13 23 11 31 -3 7 0 10 5 7 11 -7 38 41 34 58 -2 5 1 7 5 2 8 -8 39 32
54 71 5 12 14 22 20 22 6 0 9 4 6 8 -3 5 4 16 15 25 10 9 19 23 19 31 0 8 7
17 16 20 8 3 13 10 10 15 -3 5 1 11 9 15 8 3 15 10 15 16 0 6 6 18 13 25 31
36 42 50 42 57 0 4 8 16 17 28 10 11 15 20 12 20 -3 0 1 7 8 15 31 34 36 43
31 49 -4 3 -2 6 4 6 6 0 16 13 23 30 7 16 16 27 20 25 5 -3 12 5 16 17 3 12
15 30 25 41 10 11 28 39 39 61 11 23 20 37 20 33 0 -4 6 -2 14 5 8 7 12 16 10
20 -2 3 3 13 11 21 8 9 15 18 15 22 0 6 10 19 37 49 7 8 10 16 8 18 -3 2 10
21 29 41 19 20 29 37 23 37 -6 0 -2 6 9 14 10 8 19 18 19 23 0 4 10 23 23 41
13 17 20 32 15 32 -4 0 -3 4 3 8 13 9 67 119 67 138 0 8 4 14 8 14 5 0 14 27
21 60 6 33 16 60 20 60 4 0 7 10 7 23 -1 12 2 33 5 47 4 14 9 41 12 60 3 19 7
41 9 48 2 6 0 12 -6 12 -6 0 -7 5 -2 13 12 18 10 207 -2 207 -5 0 -3 5 5 10 8
5 10 10 4 10 -6 0 -10 10 -9 23 1 12 0 27 -4 32 -5 10 -10 38 -14 88 -1 15 -6
27 -11 27 -4 0 -6 13 -4 29 2 17 1 28 -4 25 -4 -3 -10 8 -13 23 -8 33 -13 47
-51 128 -15 33 -32 63 -37 66 -5 3 -8 8 -6 10 5 9 -13 49 -22 49 -6 0 -8 4 -5
9 4 5 2 11 -2 13 -5 1 -21 22 -36 46 -14 23 -31 42 -37 42 -5 0 -7 5 -4 10 3
6 -1 13 -9 16 -8 3 -18 14 -21 25 -4 10 -11 19 -17 19 -12 0 -48 39 -48 52 0
4 -4 8 -10 8 -14 0 -59 48 -51 56 3 4 1 4 -5 1 -6 -3 -21 3 -32 14 -12 11 -22
16 -22 12 0 -4 -5 0 -11 10 -5 9 -16 17 -24 17 -7 0 -20 6 -27 13 -7 7 -42 28
-78 46 -36 18 -73 37 -84 43 -14 7 -17 6 -11 -4 3 -7 1 -6 -7 3 -7 9 -19 14
-25 12 -7 -3 -13 -1 -13 4 0 5 -13 10 -30 11 -16 1 -41 7 -55 12 -15 6 -37 10
-51 10 -13 0 -24 6 -24 13 0 9 -2 9 -8 1 -7 -12 -58 -11 -69 0 -4 3 -12 1 -20
-5 -7 -7 -13 -7 -13 -2 0 11 -45 11 -56 0 -4 -3 -15 -2 -25 4 -12 6 -19 6 -19
0z"/>
</g>
</svg>
